<svg width="14" height="20" viewBox="0 0 14 20" fill="none" xmlns="http://www.w3.org/2000/svg">
<path d="M11.5294 8.87017H9.47382C9.25629 8.87017 9.07987 8.69373 9.07987 8.47622C9.07987 8.25869 9.25631 8.08227 9.47382 8.08227H11.5294V6.71305H9.47382C9.25629 6.71305 9.07987 6.53662 9.07987 6.3191C9.07987 6.10159 9.25631 5.92515 9.47382 5.92515H11.5294V4.55473H9.47382C9.25629 4.55473 9.07987 4.37829 9.07987 4.16078C9.07987 3.94326 9.25631 3.76683 9.47382 3.76683H11.5174C11.3965 1.67254 9.65873 0.00488281 7.53546 0.00488281H6.46838C4.34387 0.00488281 2.60744 1.67257 2.48648 3.76683H4.53002C4.74755 3.76683 4.92397 3.94326 4.92397 4.16078C4.92397 4.37829 4.74754 4.55473 4.53002 4.55473H2.47441V5.92515H4.53002C4.74755 5.92515 4.92397 6.10159 4.92397 6.3191C4.92397 6.53662 4.74754 6.71305 4.53002 6.71305H2.47441V8.08347H4.53002C4.74755 8.08347 4.92397 8.25991 4.92397 8.47742C4.92397 8.69494 4.74754 8.87138 4.53002 8.87138H2.47441V10.1403H11.5297L11.5294 8.87017Z" fill="#FF8C12"/>
<path d="M6.4669 14.6961H7.53398C9.6609 14.6961 11.3999 13.0236 11.5171 10.9255H2.48382C2.60225 13.0247 4.33998 14.6961 6.4669 14.6961Z" fill="#FF8C12"/>
<path d="M13.8243 8.93887C13.8243 8.72135 13.6479 8.54492 13.4304 8.54492C13.2129 8.54492 13.0364 8.72136 13.0364 8.93887V10.5461C13.0364 13.8744 10.3282 16.5826 7 16.5826C3.67179 16.5826 0.963563 13.8744 0.963563 10.5461V8.93887C0.963563 8.72135 0.787126 8.54492 0.569611 8.54492C0.352084 8.54492 0.175659 8.72136 0.175659 8.93887V10.5461C0.175659 14.1751 3.02644 17.1432 6.60468 17.3498V19.2169H3.96173C3.74421 19.2169 3.56778 19.3934 3.56778 19.6109C3.56778 19.8284 3.74422 20.0048 3.96173 20.0048H10.0344C10.2519 20.0048 10.4283 19.8284 10.4283 19.6109C10.4283 19.3934 10.2519 19.2169 10.0344 19.2169H7.39141L7.39504 17.3486C10.9745 17.1432 13.8241 14.1751 13.8241 10.5449L13.8243 8.93887Z" fill="#FF8C12"/>
</svg>
